<?xml version="1.0" encoding="UTF-8"?>
<svg version="1.1" xmlns="http://www.w3.org/2000/svg" width="128" height="128">
<path d="M0 0 C11.41877565 9.76288069 18.30858526 21.94385251 20.2734375 36.9609375 C21.45703026 53.00772402 16.95974036 67.21738401 6.62109375 79.5078125 C-3.47932619 90.06199507 -15.86128741 96.08576827 -30.48046875 97.1640625 C-46.55484875 97.43234144 -60.80566285 92.60400351 -72.4765625 81.36328125 C-83.20426507 69.90922382 -88.13060556 55.86052117 -87.9375 40.23828125 C-86.91754797 24.39124884 -80.1930469 11.74468466 -68.7265625 0.9609375 C-49.51771744 -15.49382633 -19.78314578 -14.79484541 0 0 Z M-66.0390625 15.2734375 C-74.20204908 25.563888 -76.82575193 37.03502636 -75.7265625 49.9609375 C-73.45418928 61.18673334 -67.33402192 71.51103989 -57.7265625 77.9609375 C-46.79591572 84.30035946 -36.10508504 86.85937782 -23.50390625 84.30859375 C-12.49999787 81.00032194 -3.12988693 74.55329911 2.67578125 64.54296875 C8.52236326 53.34125655 10.41772458 42.04037951 6.7109375 29.7109375 C2.12228694 17.59302228 -5.71397967 9.40691544 -17.3359375 3.99609375 C-34.56123677 -3.46257342 -53.47469876 1.71799163 -66.0390625 15.2734375 Z " fill="#000000" transform="translate(97.7265625,21.0390625)"/>
<path d="M0 0 C1.66259766 1.09008789 1.66259766 1.09008789 3 3 C3.38818359 6.12280273 3.38818359 6.12280273 3.3984375 9.93359375 C3.40274277 10.94511253 3.40274277 10.94511253 3.40713501 11.97706604 C3.40917423 13.40179281 3.40365413 14.82654767 3.39111328 16.2512207 C3.37508045 18.42658504 3.39095151 20.60008465 3.41015625 22.77539062 C3.4081733 24.16146242 3.40432855 25.54753306 3.3984375 26.93359375 C3.39505371 28.19228271 3.39166992 29.45097168 3.38818359 30.74780273 C2.97746595 34.18878998 2.48881586 35.62630558 0 38 C-3.06011644 38.44626698 -5.01727007 38.63725923 -7.66259766 36.921875 C-9.72108662 33.96378353 -9.38919941 31.37752452 -9.3984375 27.8125 C-9.40130768 27.11358643 -9.40417786 26.41467285 -9.40713501 25.69458008 C-9.40917425 24.21857899 -9.40365403 22.74255079 -9.39111328 21.26660156 C-9.3750558 19.00784862 -9.3909647 16.75088482 -9.41015625 14.4921875 C-9.40817379 13.05728772 -9.40433006 11.62238905 -9.3984375 10.1875 C-9.39505371 8.88167969 -9.39166992 7.57585938 -9.38818359 6.23046875 C-9 3 -9 3 -7.66259766 1.07421875 C-5.04860456 -0.61470484 -3.02548043 -0.37818505 0 0 Z " fill="#000000" transform="translate(67,37)"/>
<path d="M0 0 C0.94552734 0.16242188 0.94552734 0.16242188 1.91015625 0.328125 C3.91015625 3.328125 3.91015625 3.328125 3.66015625 6.390625 C2.91015625 9.328125 2.91015625 9.328125 0.91015625 11.328125 C-2.02734375 11.703125 -2.02734375 11.703125 -5.08984375 11.328125 C-7.02734375 9.703125 -7.02734375 9.703125 -8.08984375 7.328125 C-7.55398259 0.49589519 -6.69947653 0.24317519 0 0 Z " fill="#000000" transform="translate(66.08984375,79.671875)"/>
</svg>
